<?xml version="1.0" encoding="UTF-8"?>
<svg version="1.1" xmlns="http://www.w3.org/2000/svg" width="160" height="176">
<path d="M0 0 C8.76337991 6.43610869 13.23136603 14.47814069 15.0625 25.1875 C15.33401903 29.68460423 15.33973555 34.18305456 15.375 38.6875 C15.41850586 40.49347656 15.41850586 40.49347656 15.46289062 42.3359375 C15.53569183 52.7521096 14.08053312 63.9997947 7.0625 72.1875 C-2.82124944 82.15949721 -13.10201718 85.37121108 -26.95898438 85.56787109 C-42.38747179 85.54220362 -54.66580201 84.33095657 -66.64453125 73.66796875 C-76.11265167 63.81632953 -77.13211322 50.89819599 -77.1875 38 C-77.208125 36.81857422 -77.22875 35.63714844 -77.25 34.41992188 C-77.30218287 22.64616149 -75.03767544 12.90261248 -67 4.0546875 C-61.57899322 -1.19207263 -56.1611425 -3.79898075 -48.9375 -5.8125 C-48.34678711 -5.9868457 -47.75607422 -6.16119141 -47.14746094 -6.34082031 C-31.8941448 -9.59638889 -13.37262133 -8.16364608 0 0 Z M-63.140625 8.265625 C-71.23569471 17.99331381 -72.6118461 29.91094285 -71.9375 42.1875 C-70.75728907 54.46766946 -67.91952193 63.50158868 -58.9375 72.1875 C-48.82014083 80.50621754 -34.48808381 80.95811589 -21.984375 79.94921875 C-12.33672355 78.69906496 -3.24653516 75.53155065 3.125 67.875 C11.99583447 55.01121084 11.29135969 37.92763861 8.7578125 23.13671875 C6.95359427 15.48399537 3.00001486 9.00339861 -3.5625 4.5625 C-20.22772055 -5.28794635 -48.58756849 -5.46172618 -63.140625 8.265625 Z " fill="#FFFFFF" transform="translate(106.9375,48.8125)"/>
<path d="M0 0 C3.34265205 1.20706879 3.94704566 1.92056849 6 5 C6.24790112 7.69520404 6.37017523 10.24286697 6.375 12.9375 C6.39949219 13.65357422 6.42398438 14.36964844 6.44921875 15.10742188 C6.46896053 18.6576512 6.31011305 20.60119206 4.1015625 23.44140625 C0.56323865 26.06555349 -1.60027718 26.26398337 -6 26 C-9.34265205 24.79293121 -9.94704566 24.07943151 -12 21 C-12.24790112 18.30479596 -12.37017523 15.75713303 -12.375 13.0625 C-12.39949219 12.34642578 -12.42398438 11.63035156 -12.44921875 10.89257812 C-12.46896053 7.3423488 -12.31011305 5.39880794 -10.1015625 2.55859375 C-6.56323865 -0.06555349 -4.39972282 -0.26398337 0 0 Z " fill="#FFFFFF" transform="translate(79,64)"/>
<path d="M0 0 C1.97265625 0.171875 1.97265625 0.171875 4 1 C4.87109375 2.890625 4.87109375 2.890625 5.4375 5.25 C6.74735756 9.67957207 8.25006204 12.12214063 12 15 C16.78750282 17.34055694 20.94438002 17.38247492 26 16 C32.22828101 12.82710213 33.94160192 9.00807874 36.1875 2.625 C36.455625 1.75875 36.72375 0.8925 37 0 C38.32 0.33 39.64 0.66 41 1 C40.74430661 8.03156831 38.72721465 12.73489659 34 18 C28.86244642 22.2679454 23.26009305 22.56523936 16.76953125 22.3203125 C10.57598434 21.60399255 7.02238579 18.56595143 3 14 C-0.1972743 9.77503039 -0.65496035 6.17559471 -1 1 C-0.67 0.67 -0.34 0.34 0 0 Z " fill="#FFFFFF" transform="translate(56,78)"/>
<path d="M0 0 C3 0.125 3 0.125 4 1.125 C4.125 4.125 4.125 4.125 4 7.125 C3 8.125 3 8.125 0 8.25 C-3 8.125 -3 8.125 -4 7.125 C-4.125 4.125 -4.125 4.125 -4 1.125 C-3 0.125 -3 0.125 0 0 Z " fill="#FFFFFF" transform="translate(76,103.875)"/>
</svg>
